<?xml version="1.0" encoding="utf-8"?>
<svg xmlns="http://www.w3.org/2000/svg" height="512pt" version="1.1" viewBox="0 0 512 512" width="512pt">
<path d="M 0.00 0.00 L 512.00 0.00 L 512.00 512.00 L 0.00 512.00 L 0.00 0.00 Z" fill="transparent" opacity="1.00" stroke="transparent" stroke-width="0.25"/>
<path d="M 49.62 218.61 C 53.58 214.94 56.57 210.10 61.53 207.62 C 61.79 213.30 61.70 218.98 61.63 224.67 C 60.60 225.58 59.58 226.50 58.55 227.42 C 58.44 228.05 58.21 229.33 58.10 229.96 C 55.60 227.31 53.07 224.67 50.44 222.15 C 49.45 227.61 49.58 233.17 49.31 238.69 C 45.99 239.84 42.43 241.70 41.29 245.28 C 40.74 247.06 42.32 248.44 43.32 249.68 C 47.10 253.57 51.26 257.07 54.90 261.10 C 57.70 263.92 60.18 267.30 63.86 269.04 C 66.56 267.48 69.09 265.19 70.06 262.14 C 66.34 256.54 60.56 252.68 56.80 247.08 C 61.05 250.52 65.03 254.27 68.77 258.25 C 70.01 259.61 71.26 261.05 71.82 262.85 C 69.61 266.57 65.43 268.59 63.23 272.29 C 62.07 276.73 62.78 281.42 63.37 285.91 C 63.82 286.09 64.73 286.46 65.18 286.64 C 62.52 290.14 59.47 293.36 55.89 295.94 C 57.90 293.25 59.98 290.62 62.16 288.07 C 59.19 285.28 56.45 282.20 53.03 279.95 C 51.86 280.85 50.84 281.92 49.86 283.02 C 50.52 280.81 51.55 278.63 51.56 276.29 C 50.39 273.97 48.41 272.21 46.63 270.37 C 41.58 265.42 36.48 260.52 31.46 255.52 C 28.75 252.77 25.44 250.45 23.59 246.97 C 23.52 245.31 25.13 244.22 26.00 242.97 C 33.64 234.63 41.34 226.32 49.62 218.61 Z" fill="#6dd6fa" opacity="1.00" stroke="#6dd6fa" stroke-width="0.25"/>
<path d="M 49.31 238.69 C 49.58 233.17 49.45 227.61 50.44 222.15 C 53.07 224.67 55.60 227.31 58.10 229.96 C 67.19 239.18 76.26 248.42 85.50 257.49 C 86.92 258.91 88.38 260.32 89.55 261.98 C 81.83 270.57 73.35 278.48 65.18 286.64 C 64.73 286.46 63.82 286.09 63.37 285.91 C 62.78 281.42 62.07 276.73 63.23 272.29 C 65.43 268.59 69.61 266.57 71.82 262.85 C 71.26 261.05 70.01 259.61 68.77 258.25 C 65.03 254.27 61.05 250.52 56.80 247.08 C 54.18 244.39 51.58 241.68 49.31 238.69 Z" fill="#01abf6" opacity="1.00" stroke="#01abf6" stroke-width="0.25"/>
<path d="M 111.66 236.65 C 114.78 236.62 117.90 236.46 121.02 236.66 C 123.26 237.77 124.56 240.02 126.10 241.90 C 132.41 250.35 138.74 258.78 145.16 267.15 C 145.73 257.03 145.24 246.87 145.38 236.73 C 149.16 236.67 152.95 236.67 156.73 236.65 C 156.73 253.08 156.59 269.51 156.66 285.95 C 156.51 287.09 157.04 289.71 155.05 289.34 C 152.40 289.40 149.73 289.51 147.10 289.16 C 141.35 282.73 136.84 275.29 131.69 268.38 C 128.90 264.79 126.89 260.62 123.58 257.45 C 122.91 267.62 123.57 277.83 123.27 288.02 C 120.40 290.69 115.71 288.72 112.07 289.24 C 111.43 271.73 111.86 254.18 111.66 236.65 Z" fill="#1d2352" opacity="1.00" stroke="#1d2352" stroke-width="0.25"/>
<path d="M 286.33 236.66 C 290.11 236.63 293.88 236.62 297.65 236.64 C 297.63 248.10 297.76 259.55 297.66 271.01 C 297.57 273.56 297.91 276.09 298.48 278.58 C 304.55 278.48 310.62 278.50 316.69 278.48 C 316.78 282.06 316.80 285.65 316.65 289.24 C 306.62 289.37 296.58 289.38 286.54 289.25 C 286.39 271.72 286.56 254.19 286.33 236.66 Z" fill="#1d2352" opacity="1.00" stroke="#1d2352" stroke-width="0.25"/>
<path d="M 262.27 240.34 C 263.36 238.99 264.96 238.31 266.54 237.72 C 266.72 241.31 266.69 244.90 266.74 248.48 C 270.43 248.67 274.13 248.56 277.82 248.43 C 278.32 251.45 278.33 254.53 278.23 257.59 C 274.70 257.79 270.87 256.86 267.62 258.67 C 266.98 264.52 266.96 270.55 267.63 276.41 C 269.66 280.13 274.68 279.30 278.24 279.36 C 277.77 282.55 279.40 286.76 276.97 289.24 C 272.72 289.48 268.41 289.75 264.18 289.13 C 260.38 286.49 256.90 282.70 256.24 277.94 C 255.06 271.55 255.79 265.00 255.62 258.55 C 253.93 258.19 251.56 259.16 250.37 257.66 C 250.11 255.56 250.27 253.44 250.33 251.33 C 254.68 248.09 258.60 244.33 262.27 240.34 Z" fill="#1d2352" opacity="1.00" stroke="#1d2352" stroke-width="0.25"/>
<path d="M 41.29 245.28 C 42.43 241.70 45.99 239.84 49.31 238.69 C 51.58 241.68 54.18 244.39 56.80 247.08 C 60.56 252.68 66.34 256.54 70.06 262.14 C 69.09 265.19 66.56 267.48 63.86 269.04 C 60.18 267.30 57.70 263.92 54.90 261.10 C 51.26 257.07 47.10 253.57 43.32 249.68 C 42.32 248.44 40.74 247.06 41.29 245.28 Z" fill="#ffffff" opacity="1.00" stroke="#ffffff" stroke-width="0.25"/>
<path d="M 168.77 255.90 C 175.88 245.16 193.53 244.34 201.47 254.52 C 205.71 259.36 207.18 265.90 206.63 272.19 C 196.06 272.55 185.47 272.17 174.90 272.54 C 176.92 276.81 180.84 281.11 186.03 280.52 C 189.55 280.88 191.90 278.04 194.20 275.89 C 198.07 275.29 202.03 275.65 205.94 275.65 C 205.19 281.57 199.91 285.43 195.15 288.28 C 184.27 294.71 168.30 288.03 165.64 275.54 C 164.89 268.92 164.55 261.52 168.77 255.90 Z" fill="#1d2352" opacity="1.00" stroke="#1d2352" stroke-width="0.25"/>
<path d="M 233.78 249.37 C 238.31 248.08 243.07 248.65 247.70 248.21 C 242.70 254.21 238.46 260.98 235.09 267.99 C 238.63 275.65 244.65 281.94 248.88 289.24 C 244.61 289.37 240.32 289.55 236.07 289.18 C 233.03 285.09 230.99 280.36 227.99 276.23 C 224.34 280.09 222.76 285.51 218.89 289.13 C 215.21 289.55 211.47 289.33 207.86 288.53 C 212.05 281.94 216.10 275.22 220.84 269.00 C 218.28 261.68 212.36 256.04 209.94 248.63 C 213.59 248.57 217.26 248.30 220.89 248.68 C 223.25 252.16 225.08 256.01 227.97 259.12 C 230.13 256.01 232.19 252.82 233.78 249.37 Z" fill="#1d2352" opacity="1.00" stroke="#1d2352" stroke-width="0.25"/>
<path d="M 333.32 249.21 C 342.53 245.02 354.97 247.85 360.36 256.76 C 362.72 261.05 363.99 266.06 363.33 270.96 C 362.57 272.63 360.47 272.16 359.02 272.33 C 350.03 272.39 341.04 272.37 332.05 272.52 C 333.91 276.90 337.80 281.10 343.00 280.50 C 346.77 280.68 348.99 277.24 351.97 275.64 C 355.59 275.46 359.22 275.66 362.85 275.85 C 360.04 282.76 353.93 288.51 346.60 290.28 C 340.03 291.53 332.75 289.87 327.94 285.06 C 317.38 275.40 320.21 255.26 333.32 249.21 Z" fill="#1d2352" opacity="1.00" stroke="#1d2352" stroke-width="0.25"/>
<path d="M 371.70 257.80 C 377.17 247.01 393.50 243.75 402.22 252.50 C 402.84 251.22 403.41 249.90 404.17 248.69 C 406.92 248.42 409.69 248.53 412.46 248.49 C 412.39 262.07 412.63 275.66 412.27 289.22 C 409.33 289.44 406.39 289.30 403.47 289.30 C 403.38 287.94 403.30 286.59 403.24 285.25 C 402.89 285.38 402.18 285.64 401.82 285.77 C 397.17 290.29 390.15 291.55 383.99 290.07 C 377.06 287.85 371.33 281.85 369.59 274.77 C 368.81 269.09 368.68 262.90 371.70 257.80 Z" fill="#1d2352" opacity="1.00" stroke="#1d2352" stroke-width="0.25"/>
<path d="M 432.36 253.76 C 434.67 251.65 437.11 249.40 440.19 248.53 C 443.01 248.19 445.87 248.36 448.71 248.34 C 447.69 252.08 447.20 255.92 446.65 259.74 C 442.50 259.39 436.47 258.59 434.58 263.39 C 433.51 271.94 435.03 280.70 433.62 289.26 C 430.15 289.31 426.69 289.34 423.23 289.31 C 423.23 278.87 423.35 268.43 422.76 258.01 C 423.11 254.89 421.78 251.22 423.83 248.56 C 426.23 248.45 428.63 248.44 431.03 248.67 C 433.11 249.60 432.22 251.99 432.36 253.76 Z" fill="#1d2352" opacity="1.00" stroke="#1d2352" stroke-width="0.25"/>
<path d="M 463.75 253.91 C 466.69 250.61 470.51 247.65 475.15 247.64 C 481.45 247.09 488.48 250.61 489.99 257.12 C 492.27 267.75 490.19 278.60 490.71 289.35 C 487.23 289.34 483.76 289.33 480.29 289.28 C 480.33 281.84 480.36 274.40 480.32 266.97 C 480.24 264.03 479.80 260.70 477.51 258.61 C 475.16 258.05 472.73 258.40 470.36 258.53 C 466.82 261.79 464.37 266.19 463.95 271.04 C 463.45 277.14 463.78 283.29 463.65 289.41 C 460.32 289.37 456.98 289.38 453.65 289.45 C 453.40 275.82 453.39 262.18 453.44 248.54 C 456.35 248.54 459.27 248.43 462.18 248.56 C 462.91 250.27 463.30 252.11 463.75 253.91 Z" fill="#1d2352" opacity="1.00" stroke="#1d2352" stroke-width="0.25"/>
<path d="M 175.65 264.66 C 176.93 261.94 178.42 258.92 181.27 257.57 C 184.32 256.83 187.48 257.23 190.54 257.62 C 192.33 259.76 193.94 262.04 195.17 264.56 C 188.67 264.83 182.15 264.77 175.65 264.66 Z" fill="#ffffff" opacity="1.00" stroke="#ffffff" stroke-width="0.25"/>
<path d="M 333.46 264.69 C 334.48 261.70 335.63 257.91 339.15 257.13 C 344.71 255.11 351.23 258.71 352.23 264.60 C 345.97 264.79 339.71 264.78 333.46 264.69 Z" fill="#ffffff" opacity="1.00" stroke="#ffffff" stroke-width="0.25"/>
<path d="M 386.32 258.25 C 390.47 256.69 395.92 257.65 398.68 261.34 C 402.76 266.39 401.70 274.63 396.51 278.54 C 391.24 282.48 382.56 279.95 380.56 273.57 C 378.01 267.97 380.82 260.81 386.32 258.25 Z" fill="#ffffff" opacity="1.00" stroke="#ffffff" stroke-width="0.25"/>
<path d="M 49.86 283.02 C 50.84 281.92 51.86 280.85 53.03 279.95 C 56.45 282.20 59.19 285.28 62.16 288.07 C 59.98 290.62 57.90 293.25 55.89 295.94 C 54.24 298.13 52.14 299.93 49.92 301.51 C 49.54 295.37 48.93 289.13 49.86 283.02 Z" fill="#01abf6" opacity="1.00" stroke="#01abf6" stroke-width="0.25"/>
</svg>